<?xml version="1.0" encoding="UTF-8"?>
<svg width="512" height="512" viewBox="0 0 512 512" fill="none" xmlns="http://www.w3.org/2000/svg">
  <!-- 背景圆形 -->
  <circle cx="256" cy="256" r="240" fill="#18181B" />
  
  <!-- 恶魔头部（圆形） -->
  <circle cx="256" cy="256" r="160" fill="#7C3AED" />
  
  <!-- 恶魔角 - 左 -->
  <path d="M156 186
           C 156 186, 116 76, 76 36
           C 66 26, 96 96, 106 126
           C 116 156, 136 186, 156 186
           Z" 
        fill="#DC2626" />
  
  <!-- 恶魔角 - 右 -->
  <path d="M356 186
           C 356 186, 396 76, 436 36
           C 446 26, 416 96, 406 126
           C 396 156, 376 186, 356 186
           Z" 
        fill="#DC2626" />
  
  <!-- 眼睛 - 发光效果 -->
  <circle cx="196" cy="236" r="48" fill="#DC2626" opacity="0.5" />
  <circle cx="316" cy="236" r="48" fill="#DC2626" opacity="0.5" />
  
  <!-- 眼睛 -->
  <circle cx="196" cy="236" r="36" fill="#DC2626" />
  <circle cx="316" cy="236" r="36" fill="#DC2626" />
  
  <!-- 眼珠 -->
  <circle cx="196" cy="236" r="12" fill="#FAFAFA" />
  <circle cx="316" cy="236" r="12" fill="#FAFAFA" />
  
  <!-- 邪恶的笑容 -->
  <path d="M176 286 
           Q 256 386 336 286
           Q 256 346 176 286
           Z" 
        fill="#DC2626" />
  
  <!-- 尖牙 -->
  <path d="M196 286 
           L 226 346 
           L 256 286 
           L 286 346 
           L 316 286" 
        stroke="#DC2626" 
        stroke-width="16" 
        fill="none" />
</svg>
