<?xml version="1.0" standalone="no"?>
<!DOCTYPE svg PUBLIC "-//W3C//DTD SVG 20010904//EN"
 "http://www.w3.org/TR/2001/REC-SVG-20010904/DTD/svg10.dtd">
<svg version="1.0" xmlns="http://www.w3.org/2000/svg"
 width="512.000000pt" height="512.000000pt" viewBox="0 0 512.000000 512.000000"
 preserveAspectRatio="xMidYMid meet">
<metadata>
Created by potrace 1.16, written by Peter Selinger 2001-2019
</metadata>
<g transform="translate(0.000000,512.000000) scale(0.100000,-0.100000)"
fill="#000000" stroke="none">
<path d="M970 4953 c-131 -159 -167 -460 -83 -711 58 -176 156 -326 320 -489
l102 -103 -93 0 c-173 0 -268 32 -357 122 -63 63 -107 139 -120 206 -7 43 -8
41 -4 -18 10 -133 66 -251 183 -386 91 -103 162 -167 322 -286 63 -47 125 -96
137 -109 l22 -24 -119 -3 c-135 -4 -196 9 -272 57 -65 41 -83 78 -82 171 0 45
-3 65 -7 50 -23 -82 -2 -242 42 -317 26 -46 11 -41 -54 16 -126 110 -194 213
-215 327 -7 36 -10 41 -11 19 -3 -99 71 -272 173 -405 36 -47 90 -119 119
-160 30 -41 73 -92 97 -113 46 -42 133 -87 165 -86 11 0 2 6 -20 13 -68 21
-100 43 -154 102 -70 76 -86 109 -31 62 54 -47 163 -101 263 -129 92 -27 102
-48 25 -51 l-53 -1 49 -6 c46 -6 47 -7 30 -22 -68 -59 -166 -69 -252 -25 -107
54 -172 136 -205 256 l-17 65 6 -60 c8 -78 22 -118 75 -212 61 -107 138 -184
214 -212 53 -20 72 -22 154 -17 l94 6 -27 -29 c-19 -20 -24 -30 -15 -33 20 -7
-70 -56 -116 -63 -57 -9 -149 10 -225 46 -99 48 -240 195 -304 317 -27 51 -62
104 -78 117 -35 30 -88 45 -148 44 l-45 -1 42 -8 c96 -19 144 -64 213 -199 85
-166 200 -285 343 -355 59 -29 65 -34 45 -40 -71 -18 -128 1 -177 61 -17 21
-31 34 -31 30 0 -18 30 -64 60 -92 l31 -30 -28 -12 c-24 -11 -15 -12 74 -13
56 0 113 4 128 10 37 14 24 -3 -32 -41 -59 -41 -149 -51 -220 -24 -59 23 -131
88 -154 140 -24 55 -34 136 -20 177 10 30 10 31 -4 13 -24 -31 -38 -96 -32
-147 13 -103 78 -193 177 -243 27 -14 50 -29 50 -34 0 -22 -49 -78 -84 -95
-85 -42 -124 20 -70 112 l28 47 -25 -16 c-13 -9 -37 -41 -52 -71 -54 -105 -46
-263 19 -348 15 -19 23 -26 19 -15 -39 107 -11 169 89 196 68 18 121 55 197
139 71 79 139 127 209 148 82 24 90 20 22 -12 -40 -19 -86 -45 -102 -56 -36
-26 -67 -82 -76 -139 -6 -36 -3 -43 24 -71 26 -25 38 -30 79 -30 84 0 151 54
168 135 6 28 5 28 -15 -8 -31 -57 -124 -106 -175 -93 -67 17 -74 77 -15 130
22 20 45 36 52 36 6 0 9 3 6 6 -9 8 -48 -13 -82 -45 l-28 -26 15 30 c25 49 67
82 157 120 46 20 90 41 97 47 23 19 24 2 2 -28 -11 -16 -1 -9 23 16 24 25 50
50 59 55 12 8 11 7 -1 -5 -9 -9 -15 -20 -13 -26 6 -18 -70 -107 -125 -147 -74
-55 -85 -76 -17 -33 33 21 68 45 78 54 20 18 20 18 6 -50 -20 -98 -84 -179
-173 -219 -71 -32 -121 -24 -180 30 -27 25 -28 25 -17 3 14 -26 67 -62 94 -62
21 0 21 -2 -3 -49 -51 -101 -159 -124 -205 -43 l-16 27 6 -34 c8 -51 51 -100
109 -126 65 -29 73 -39 136 -164 49 -99 51 -104 34 -122 -30 -33 -82 -60 -132
-69 l-47 -8 67 -1 c37 0 78 3 91 8 37 14 96 69 117 110 l19 36 1 -30 c0 -38
28 -83 84 -140 24 -24 47 -54 51 -67 23 -74 91 -170 148 -210 30 -20 29 -19
-10 24 -78 86 -123 208 -123 333 0 61 2 69 32 98 17 18 33 27 34 22 35 -135
79 -278 100 -321 14 -30 57 -96 96 -147 85 -112 94 -129 118 -220 l20 -72 -6
64 c-7 83 -29 141 -97 248 -48 76 -117 204 -117 216 0 3 39 -36 88 -86 108
-112 199 -185 327 -264 110 -68 208 -150 230 -193 13 -24 13 -30 0 -40 -8 -7
-30 -10 -49 -8 -45 5 -39 -3 37 -45 66 -38 112 -81 146 -137 29 -48 26 -27 -9
82 -43 135 -106 224 -259 366 -238 221 -365 354 -427 448 -74 110 -93 164 -99
269 -4 69 -3 73 4 30 15 -86 71 -211 102 -231 6 -3 4 4 -4 17 -9 13 -28 56
-42 94 -30 79 -44 227 -27 285 10 33 10 30 12 -35 1 -38 6 -83 10 -100 5 -19
6 -3 3 40 -2 39 0 88 5 110 10 39 10 38 11 -26 4 -243 98 -437 313 -644 45
-44 71 -66 57 -50 -72 84 -205 267 -230 318 -16 31 -32 77 -36 102 -5 43 -4
45 19 45 42 0 56 -21 98 -144 64 -186 92 -230 254 -401 l48 -50 -49 63 c-83
108 -133 183 -133 200 1 32 94 -82 145 -178 31 -58 81 -130 128 -185 108 -123
149 -212 170 -360 2 -16 2 8 0 55 -8 157 -50 270 -123 333 -40 34 -60 77 -60
127 1 24 1 24 14 -6 8 -17 40 -61 73 -96 32 -36 67 -84 77 -107 23 -49 36 -53
37 -8 0 17 4 41 8 52 7 18 12 15 42 -28 31 -44 35 -47 46 -30 41 61 39 61 57
5 21 -61 36 -59 36 5 0 40 5 50 42 87 23 22 51 58 63 79 l22 39 7 -26 c8 -34
-7 -62 -60 -109 -24 -21 -46 -48 -50 -60 -3 -12 -21 -56 -39 -97 -34 -79 -66
-200 -64 -247 0 -18 6 -8 15 30 15 65 68 175 116 246 18 25 78 93 133 151 55
58 133 141 174 185 40 44 70 73 66 65 -11 -24 43 40 81 98 54 80 100 186 127
295 14 54 28 101 30 104 5 5 13 -39 20 -117 2 -19 5 -6 6 30 3 117 31 109 31
-9 0 -30 3 -51 6 -48 4 4 7 68 6 144 0 117 1 129 9 78 5 -33 6 -80 4 -105 -4
-29 -2 -40 3 -30 18 30 34 121 35 205 3 126 18 58 20 -85 3 -242 -82 -413
-338 -679 -199 -208 -246 -292 -253 -451 -2 -52 1 -111 6 -130 9 -31 10 -26
11 46 2 183 68 294 255 431 234 171 352 315 408 498 14 46 17 51 12 20 -3 -22
-13 -67 -23 -100 -10 -33 -21 -80 -24 -105 l-6 -45 15 50 c46 152 79 244 86
237 19 -19 30 -131 20 -218 -5 -49 -8 -90 -7 -92 9 -10 47 136 52 198 6 72 7
74 19 45 28 -66 7 -183 -54 -300 -27 -50 -64 -97 -135 -167 -120 -119 -150
-176 -153 -288 l-2 -75 7 65 c11 96 40 142 170 270 106 103 122 125 164 210
26 52 52 120 58 150 18 88 16 86 46 59 40 -37 73 -116 73 -177 0 -68 -21 -116
-73 -171 -37 -38 -38 -41 -11 -23 128 88 185 258 162 481 -15 140 -7 160 72
176 65 12 99 35 134 90 31 47 35 79 5 41 -40 -51 -125 -29 -180 47 l-30 42 40
13 c22 7 59 31 83 54 26 24 30 30 10 14 -77 -60 -231 -73 -322 -26 -66 34
-152 128 -193 212 -40 83 -60 146 -27 86 11 -21 22 -38 25 -38 6 0 -24 69 -42
97 -9 13 -13 26 -10 29 3 3 19 -20 36 -52 35 -68 40 -59 11 18 l-21 53 35 -40
c19 -22 53 -74 76 -115 22 -42 51 -89 65 -105 l24 -30 -20 90 c-10 50 -26 108
-34 130 -13 35 -13 38 0 25 8 -9 23 -40 34 -70 23 -65 27 -54 7 16 l-15 49 54
-58 c37 -39 57 -70 65 -100 5 -23 21 -63 34 -89 l23 -47 -26 14 c-38 20 -77
64 -101 115 -16 34 -20 38 -15 15 13 -60 54 -116 102 -137 75 -33 106 -34 158
-3 52 30 56 44 6 19 -27 -14 -40 -15 -70 -5 -49 14 -66 35 -91 105 -11 32 -33
74 -50 93 -17 19 -29 37 -26 40 15 15 123 -54 205 -130 112 -105 152 -125 261
-134 66 -5 88 -11 110 -30 38 -32 55 -84 41 -125 -13 -36 -8 -49 8 -20 24 44
32 113 20 175 -11 66 -47 145 -75 168 -16 13 -16 12 -6 -8 17 -30 15 -60 -4
-67 -25 -9 -204 89 -204 113 0 3 25 19 55 35 102 53 176 160 195 283 12 80 31
276 26 280 -2 2 -9 -27 -16 -64 -21 -113 -47 -169 -105 -228 -122 -125 -329
-170 -476 -103 l-54 25 49 21 c27 12 46 25 43 29 -4 3 -12 1 -19 -5 -28 -23
-85 -24 -131 -4 -50 22 -60 33 -51 57 7 16 14 16 59 0 16 -5 17 -5 5 4 -11 8
-1 11 45 11 72 0 129 15 170 43 l30 21 -20 -23 c-11 -13 -42 -36 -70 -52 l-49
-28 39 -18 c118 -51 289 7 345 118 31 60 24 76 -13 27 -38 -51 -124 -100 -214
-122 -86 -22 -106 -20 -54 6 24 12 82 58 130 103 56 54 97 85 118 89 38 9 187
96 225 133 18 17 38 59 58 118 41 123 79 162 180 186 24 5 14 6 -30 2 -115
-10 -170 -56 -170 -144 0 -51 -29 -86 -101 -124 -84 -44 -99 -45 -99 -5 0 25
-24 90 -33 90 -1 0 -1 -20 1 -45 8 -89 -58 -170 -170 -212 -65 -23 -180 -21
-251 7 -32 12 -56 24 -53 27 3 3 30 16 61 28 190 78 378 245 485 431 54 95 79
168 85 256 l5 73 -15 -58 c-31 -122 -97 -226 -234 -370 -106 -111 -246 -198
-358 -222 -28 -5 -33 -4 -33 12 0 31 13 41 97 71 134 49 261 149 312 244 22
43 17 37 -35 -34 -37 -51 -90 -91 -171 -132 -75 -37 -173 -70 -173 -57 0 15
43 63 82 91 l39 29 -38 6 c-21 4 -50 9 -65 11 -48 9 -130 -21 -169 -63 -82
-86 -132 -197 -130 -293 0 -35 -6 -87 -13 -115 -8 -27 -17 -80 -20 -117 -15
-162 -93 -237 -246 -238 -88 -1 -137 -19 -192 -74 -57 -56 -71 -88 -18 -44 48
42 116 76 163 84 22 3 16 -2 -23 -17 -57 -23 -173 -128 -168 -152 1 -7 -6 -60
-16 -119 -13 -74 -23 -108 -33 -108 -9 0 -13 18 -14 68 l0 67 -19 -75 c-10
-41 -16 -78 -14 -81 2 -3 15 -4 29 -1 21 3 24 1 19 -12 -4 -11 -12 -15 -23
-10 -62 27 -247 -1 -310 -46 -38 -28 -39 -28 -56 -10 -26 29 -115 59 -186 62
-57 3 -64 1 -75 -20 l-11 -23 -7 23 c-9 35 -8 38 14 38 25 0 27 41 5 115 l-14
50 0 -50 c1 -93 -1 -105 -15 -105 -9 0 -19 21 -27 53 l-14 52 -5 -44 -5 -43
-22 18 c-16 15 -23 34 -27 84 l-6 65 16 -43 c9 -24 18 -41 21 -38 8 8 -27 117
-58 181 l-29 60 50 -53 c57 -61 65 -56 18 13 -52 75 -121 112 -248 129 -114
17 -135 27 -187 95 -39 50 -53 97 -53 172 0 31 -7 76 -16 100 -11 33 -14 62
-9 117 7 70 5 75 -33 155 -42 85 -93 146 -146 175 -24 12 -59 16 -154 17 -117
0 -122 -1 -102 -17 11 -9 44 -38 73 -64 l52 -47 -48 7 c-147 22 -198 60 -257
190 l-40 89 32 -27 c18 -15 58 -39 88 -54 51 -24 64 -26 190 -27 149 0 164 -5
247 -72 59 -47 96 -106 117 -183 15 -58 59 -150 71 -150 5 0 -24 79 -35 95 -4
6 -4 20 -1 31 6 20 9 19 56 -25 28 -25 46 -43 41 -38 -28 21 -22 1 12 -45 21
-29 50 -74 65 -100 49 -85 131 -127 251 -129 82 -1 36 -17 -54 -18 -49 -1 -78
5 -115 23 -64 30 -96 67 -129 154 -15 38 -39 80 -54 93 -19 17 -22 18 -10 4
10 -12 29 -51 43 -89 62 -164 151 -222 306 -197 35 6 78 11 94 10 26 0 22 -4
-38 -35 -38 -19 -93 -39 -123 -45 -110 -20 -221 27 -271 116 -13 22 -23 36
-23 31 0 -23 52 -95 87 -119 57 -39 86 -47 172 -47 70 0 85 4 160 40 90 44
161 64 175 50 4 -4 -8 -16 -28 -25 -20 -10 -36 -19 -36 -20 0 -2 14 -3 32 -3
47 2 74 -36 83 -114 6 -54 36 -138 50 -138 2 0 -2 18 -10 40 -8 23 -17 64 -21
93 -4 29 -15 75 -25 102 -11 28 -19 61 -19 74 0 23 1 24 20 6 11 -10 22 -26
25 -36 4 -11 10 -17 15 -14 5 3 16 -7 25 -22 15 -27 15 -27 9 -3 -3 14 -17 45
-30 69 -29 53 -29 54 -2 45 42 -13 63 -53 84 -159 l14 -70 -4 80 c-2 63 -8 91
-29 132 -15 29 -27 63 -27 75 l0 23 20 -25 c15 -19 20 -21 20 -9 0 20 20 29
65 29 38 0 60 -21 52 -50 -7 -27 10 -15 34 24 18 30 19 30 19 6 0 -14 -9 -40
-20 -58 -24 -39 -25 -49 -5 -32 21 17 19 4 -4 -28 -10 -15 -22 -38 -26 -52 -5
-18 0 -14 21 16 95 136 108 128 34 -21 -27 -55 -50 -109 -49 -120 0 -13 5 -6
14 17 15 41 94 158 107 158 15 0 8 -26 -17 -60 -39 -53 -29 -58 19 -11 35 34
50 42 68 38 20 -5 18 -1 -12 24 l-34 29 26 0 c15 0 71 -23 125 -52 91 -48 103
-52 163 -52 97 2 173 27 227 76 44 41 73 85 73 110 0 7 -10 -7 -22 -31 -42
-84 -166 -148 -273 -139 -35 3 -82 19 -139 46 -47 23 -86 44 -86 45 0 2 35 -1
78 -5 42 -5 111 -8 153 -6 65 3 81 7 112 31 20 15 42 38 48 50 10 20 9 19 -17
-4 -61 -56 -142 -78 -231 -63 l-48 8 72 7 c50 5 86 15 115 32 45 26 98 91 116
142 l10 30 2 -40 2 -40 9 39 c5 21 18 51 30 67 11 16 18 33 15 38 -8 13 31 44
45 35 7 -4 10 -3 5 4 -3 6 -2 13 4 17 6 4 10 -7 11 -27 0 -24 5 -14 20 41 10
41 22 77 25 80 13 12 -7 -111 -26 -161 -11 -29 -18 -54 -16 -56 9 -9 56 88 71
148 21 82 27 93 89 158 66 70 124 99 260 127 131 28 183 46 253 85 l52 30 -20
-34 c-11 -19 -38 -55 -60 -80 -45 -51 -43 -56 7 -26 71 44 124 161 129 285 1
39 1 55 -2 38 -5 -40 -18 -42 -31 -5 -9 24 -10 22 -11 -25 -1 -48 -4 -54 -43
-87 -73 -63 -184 -93 -295 -81 -80 8 -79 11 82 118 158 105 225 157 309 237
119 113 195 252 211 385 l5 50 -19 -59 c-55 -165 -202 -279 -424 -327 -49 -11
-92 -18 -94 -15 -7 7 79 62 144 91 35 15 67 33 73 39 5 7 -16 0 -48 -16 -61
-30 -187 -56 -216 -45 -15 6 1 28 95 125 170 174 279 352 331 539 18 65 22
105 22 243 1 158 -1 168 -28 240 -30 79 -80 165 -111 190 -17 14 -18 13 -10
-15 29 -109 31 -179 10 -278 -39 -183 -168 -345 -324 -407 -42 -16 -80 -21
-194 -23 l-143 -3 -1 54 c-2 61 -45 161 -87 201 l-24 23 15 -52 c37 -125 -14
-205 -187 -294 -85 -45 -114 -48 -168 -19 -79 43 -175 80 -270 104 -71 18 -93
28 -101 46 -6 12 -25 39 -44 60 -37 41 -77 109 -77 131 0 7 -4 10 -10 7 -17
-11 -11 -52 21 -132 27 -69 30 -85 24 -143 -12 -130 -15 -133 -41 -34 -55 210
-58 225 -47 289 13 77 47 149 91 192 l34 35 -29 -15 c-101 -53 -192 -233 -180
-359 5 -56 4 -58 -21 -64 -103 -23 -192 -52 -289 -95 -61 -27 -123 -49 -136
-49 -35 0 -150 54 -190 90 -43 38 -65 83 -76 157 l-9 58 -1 -68 c-1 -40 5 -82
14 -104 20 -48 19 -50 -12 -22 l-27 24 16 -25 c8 -14 51 -52 94 -85 129 -98
190 -211 204 -375 6 -66 7 -59 9 60 2 177 9 205 63 254 83 75 368 188 389 154
5 -7 7 -22 4 -33 -2 -11 -5 -38 -5 -61 0 -30 -7 -48 -25 -68 -63 -68 -65 -80
-23 -184 21 -51 22 -53 4 -120 -20 -79 -17 -100 42 -250 37 -93 65 -198 75
-277 2 -16 5 2 6 40 1 89 -17 159 -74 284 -50 110 -56 153 -28 231 17 47 16
50 -7 124 l-23 76 37 54 c28 40 36 61 31 78 -6 23 -6 23 10 3 9 -11 33 -51 53
-90 32 -64 36 -80 42 -180 4 -60 8 -105 9 -100 1 6 6 80 10 165 9 154 31 259
64 303 12 18 16 18 82 2 98 -22 261 -103 307 -152 40 -41 39 -39 98 -296 15
-65 39 -133 73 -200 48 -96 50 -106 50 -177 -1 -41 -8 -97 -17 -124 -8 -27
-13 -53 -10 -58 3 -4 -4 -29 -15 -54 -17 -37 -18 -44 -5 -33 21 17 34 51 49
124 l11 60 7 -106 c8 -115 -2 -185 -32 -235 -10 -17 -65 -73 -122 -124 -57
-52 -138 -130 -179 -174 -89 -94 -124 -113 -174 -92 -71 30 -77 112 -16 234
50 99 113 167 207 221 93 53 105 72 16 26 l-68 -36 41 38 c23 21 66 59 97 86
93 79 140 202 121 314 l-8 48 -7 -67 c-14 -126 -49 -179 -259 -388 -198 -198
-244 -261 -257 -355 -7 -54 -32 -91 -56 -82 -9 3 -18 16 -21 29 -47 263 -79
327 -268 525 -125 133 -163 200 -172 306 -3 37 -2 67 2 67 4 0 26 -11 50 -25
59 -33 53 -22 -12 20 -67 45 -81 72 -80 150 1 78 33 150 103 228 28 32 51 66
50 75 0 11 -4 9 -10 -8 -5 -13 -34 -49 -63 -80 -52 -55 -81 -113 -107 -215
-13 -52 -1 -94 35 -123 18 -15 21 -28 21 -102 0 -130 32 -188 195 -355 79 -80
137 -149 152 -180 37 -73 58 -155 57 -222 l-1 -58 -13 72 c-14 80 -59 176
-114 243 -20 24 -88 96 -152 160 -147 146 -179 205 -189 343 l-6 92 -8 -69
c-20 -166 11 -244 152 -377 l97 -91 -73 37 c-41 20 -71 31 -67 25 3 -6 41 -28
84 -50 139 -69 231 -197 239 -331 4 -59 2 -68 -23 -97 -22 -27 -34 -32 -69
-32 -41 0 -46 4 -239 193 -230 225 -236 235 -237 374 0 51 -5 138 -11 193 -14
115 -7 151 42 228 42 66 50 103 39 186 -9 69 -38 181 -45 174 -2 -2 3 -30 11
-63 21 -90 18 -143 -11 -202 -15 -28 -34 -57 -43 -65 -15 -11 -15 -11 -5 3 23
29 45 151 40 220 -8 120 -66 206 -235 350 l-42 36 -1 74 -1 74 -9 -50 c-5 -27
-6 -65 -2 -84 4 -24 3 -32 -6 -27 -6 4 -70 18 -142 31 -160 29 -206 50 -289
134 -72 73 -129 174 -155 276 -19 74 -19 213 -1 283 8 28 13 52 11 52 -2 0
-18 -17 -35 -37z m-15 -408 c48 -168 239 -447 368 -539 66 -47 93 -85 102
-148 5 -30 5 -31 -6 -10 -7 12 -37 36 -68 52 -133 72 -269 221 -350 385 -75
150 -101 283 -85 433 l8 77 7 -96 c3 -52 14 -122 24 -154z m3234 21 c-11 -108
-32 -174 -90 -286 -83 -163 -204 -297 -336 -372 -49 -28 -52 -31 -58 -81 -18
-146 -72 -279 -131 -324 -20 -15 -52 -41 -70 -57 -57 -48 -38 -15 33 56 l67
67 -75 -39 c-81 -42 -103 -62 -142 -130 -32 -55 -34 -49 -6 25 27 73 66 117
148 164 118 70 145 114 160 260 5 49 16 100 25 113 8 13 64 69 125 125 60 57
132 133 160 170 103 135 179 329 183 462 l1 56 7 -65 c4 -36 3 -101 -1 -144z
m-759 -232 c0 -100 -6 -112 -74 -143 -34 -15 -78 -42 -99 -60 -48 -42 -95
-139 -113 -232 l-14 -74 4 80 c4 84 32 174 67 219 11 14 54 48 97 76 99 67
107 79 106 163 0 60 1 65 13 45 7 -13 12 -46 13 -74z m448 -119 c-30 -27 -75
-54 -119 -71 -40 -16 -78 -38 -86 -50 -19 -29 -41 -113 -49 -186 -4 -34 -11
-55 -17 -51 -12 7 -2 113 18 181 21 71 54 105 122 130 32 12 83 37 113 56 30
19 57 34 60 35 3 0 -16 -19 -42 -44z m-2543 -50 c54 -22 83 -52 91 -92 3 -18
9 -31 13 -29 4 3 6 -12 4 -32 -2 -23 0 -30 4 -20 5 10 9 -19 9 -65 2 -94 39
-249 80 -329 14 -27 20 -47 14 -43 -34 21 -82 180 -115 377 -13 76 -30 149
-39 162 -8 14 -48 40 -88 60 -40 20 -86 47 -103 62 -30 25 -29 25 30 -5 33
-16 78 -37 100 -46z m258 -31 c75 -25 143 -94 174 -179 32 -89 41 -220 22
-325 -13 -71 -14 -73 -17 -32 -2 24 1 74 7 112 11 72 4 142 -26 233 -20 63
-27 56 -8 -8 8 -26 15 -77 15 -113 0 -63 -17 -142 -30 -142 -4 0 -5 -15 -3
-32 l4 -33 -35 39 c-43 47 -47 32 -9 -25 20 -31 28 -57 31 -104 2 -35 0 -70
-5 -79 -6 -11 -9 1 -9 37 -1 44 -10 69 -52 148 -57 104 -65 110 -26 18 14 -34
23 -63 21 -65 -8 -8 -79 78 -93 112 -8 19 -23 87 -34 152 -22 131 -43 209 -71
264 -10 21 -19 40 -19 44 0 10 109 -5 163 -22z m2007 -36 c-26 -56 -39 -99
-95 -303 -13 -47 -104 -203 -105 -179 0 6 6 32 14 57 8 26 10 45 6 42 -4 -3
-16 -35 -26 -71 l-18 -67 -12 34 c-7 19 -13 44 -13 56 -1 12 -5 25 -11 28 -6
4 -8 -25 -3 -84 3 -50 4 -91 1 -91 -3 0 -16 42 -29 93 -52 204 -21 371 90 490
47 50 61 56 153 56 l77 1 -29 -62z m-243 0 c-73 -97 -108 -212 -117 -378 -5
-115 -7 -123 -19 -95 -8 17 -17 84 -21 150 l-7 120 -2 -105 c-3 -124 -20 -111
-20 15 0 88 27 192 48 187 7 -1 11 3 9 10 -6 18 115 124 145 127 4 1 -3 -14
-16 -31z m-1890 -160 c-3 -8 -6 -5 -6 6 -1 11 2 17 5 13 3 -3 4 -12 1 -19z
m10 -50 c-3 -8 -6 -5 -6 6 -1 11 2 17 5 13 3 -3 4 -12 1 -19z m2079 -80 c-6
-54 -46 -168 -59 -168 -3 0 6 29 19 64 13 36 26 87 30 115 10 73 18 63 10 -11z
m-2148 -237 c30 -22 77 -48 105 -58 34 -12 68 -35 100 -66 58 -59 61 -77 7
-38 -22 16 -84 46 -138 66 -53 21 -114 48 -135 62 -38 24 -38 24 20 -50 33
-41 90 -108 128 -149 74 -78 71 -69 -8 25 -27 31 -47 57 -44 57 5 0 74 -44
148 -94 23 -15 47 -45 64 -80 25 -52 27 -61 20 -138 l-8 -83 -12 40 c-22 74
-54 123 -116 177 -34 29 -100 103 -147 163 -108 139 -147 180 -186 197 -30 13
-29 13 44 18 86 6 86 6 158 -49z m2449 -3 c-18 -24 -54 -72 -79 -108 -50 -72
-168 -195 -236 -248 -23 -19 -56 -57 -72 -85 l-30 -52 0 43 c0 74 39 123 166
209 51 35 184 162 184 176 0 3 -21 -3 -47 -13 -27 -10 -86 -30 -133 -44 l-85
-25 37 33 c41 36 226 135 272 147 55 13 58 10 23 -33z m-2749 -27 c52 -27 122
-79 122 -91 0 -16 -58 -12 -93 6 -54 28 -117 77 -117 91 0 19 45 16 88 -6z
m2139 -163 c-2 -18 -4 -4 -4 32 0 36 2 50 4 33 2 -18 2 -48 0 -65z m-1423 -83
c0 -67 -21 -185 -37 -200 -6 -7 -7 12 -3 55 4 36 9 105 13 154 5 70 8 84 17
70 6 -11 10 -46 10 -79z m1473 18 c-1 -38 1 -95 5 -128 7 -59 7 -59 -6 -20
-12 40 -13 39 -17 -55 -6 -128 -27 -163 -151 -258 -51 -39 -111 -86 -133 -104
l-40 -33 22 31 c26 36 72 79 161 149 35 27 76 70 90 94 24 41 27 58 33 186 4
81 12 154 20 173 7 17 14 32 15 32 1 0 2 -30 1 -67z m210 25 c-34 -45 -65
-110 -76 -155 l-9 -38 -1 48 c-1 26 6 62 15 80 18 35 73 97 86 97 5 0 -2 -15
-15 -32z m415 12 c-18 -11 -77 -39 -130 -61 -167 -69 -220 -114 -296 -249
l-37 -65 6 50 c9 72 49 148 102 195 35 31 66 46 132 66 47 13 120 38 161 53
91 35 105 37 62 11z m-2565 -45 c54 -14 110 -31 126 -37 46 -18 122 -109 139
-169 19 -61 30 -119 23 -119 -2 0 -19 30 -37 67 -45 91 -120 166 -205 204
-166 76 -213 98 -213 104 0 3 16 -1 35 -9 19 -8 78 -26 132 -41z m513 -297
c15 -33 48 -69 108 -120 97 -83 201 -198 147 -164 -31 20 -161 134 -226 199
-49 48 -69 115 -68 221 l2 81 7 -86 c5 -53 16 -103 30 -131z m-96 -34 c10 -13
47 -44 84 -68 37 -24 76 -54 87 -66 l20 -23 -20 8 c-11 4 -48 16 -81 25 -34
10 -72 23 -84 30 -32 17 -50 70 -49 142 l0 63 14 -43 c7 -23 20 -54 29 -68z
m1603 -14 c-6 -54 -47 -96 -104 -105 -21 -4 -60 -13 -86 -20 -46 -13 -48 -12
-33 4 9 10 45 35 81 56 75 43 113 84 122 128 l6 31 9 -25 c6 -13 7 -44 5 -69z
m-1700 28 c-3 -7 -5 -2 -5 12 0 14 2 19 5 13 2 -7 2 -19 0 -25z m-320 -30
c125 -46 217 -202 183 -308 -5 -17 -8 -19 -9 -7 -2 36 -21 15 -22 -25 -1 -40
-2 -41 -9 -13 -7 29 -8 28 -8 -10 -1 -48 11 -71 61 -114 27 -24 37 -41 37 -62
0 -34 -17 -37 -53 -9 -54 43 -91 173 -68 242 6 19 23 45 36 58 22 21 23 25 10
49 -7 14 -27 39 -44 56 l-31 29 5 -34 c6 -33 5 -33 -21 15 -37 71 -70 103
-139 137 -58 28 -58 29 -20 22 22 -4 63 -15 92 -26z m2452 -3 c-48 -25 -170
-148 -195 -197 -14 -26 -13 -31 6 -55 31 -40 28 -152 -6 -222 -24 -47 -71 -91
-98 -91 -22 0 8 67 48 105 45 44 56 74 48 139 -4 38 -21 40 -23 3 -1 -20 -2
-20 -9 3 -34 107 61 271 186 320 71 28 99 24 43 -5z m-1100 -91 c-17 -30 -40
-81 -50 -112 -11 -35 -18 -48 -18 -32 -1 31 38 127 68 169 35 48 34 37 0 -25z
m-1042 -16 c-3 -8 -6 -5 -6 6 -1 11 2 17 5 13 3 -3 4 -12 1 -19z m10 -60 c-3
-7 -5 -2 -5 12 0 14 2 19 5 13 2 -7 2 -19 0 -25z m340 -103 c9 -68 53 -93 102
-58 23 16 25 15 48 -11 12 -15 23 -31 23 -36 0 -11 -87 -40 -122 -40 -93 0
-170 120 -105 165 31 22 50 15 54 -20z m1143 0 c22 -23 -5 -93 -49 -122 -43
-29 -120 -30 -170 -4 -33 18 -34 19 -14 30 12 6 35 8 52 5 42 -9 81 31 81 82
l0 37 43 -7 c23 -4 49 -13 57 -21z m56 -58 c-35 -89 -102 -138 -185 -136 l-56
2 62 7 c94 10 163 72 180 160 3 19 8 29 11 22 2 -8 -3 -32 -12 -55z m1039 35
c-18 -15 -85 -54 -85 -48 0 3 19 16 43 30 43 26 59 33 42 18z m-2324 -93 c33
-47 92 -72 156 -67 30 3 48 1 41 -3 -39 -25 -135 -2 -186 45 -26 23 -62 87
-62 108 1 7 7 -2 15 -20 8 -18 24 -47 36 -63z m-781 -1 c25 -11 77 -23 115
-26 68 -5 69 -6 40 -18 -82 -35 -192 -4 -240 68 l-28 42 34 -23 c19 -12 54
-31 79 -43z m2716 -59 c11 0 28 -5 39 -10 14 -6 -5 -8 -60 -6 -66 2 -86 6
-113 26 -30 21 -32 24 -15 36 14 11 26 8 74 -16 31 -16 65 -29 75 -30z m-2275
-300 c-11 -19 -29 -68 -42 -109 -25 -85 -61 -163 -93 -201 -11 -14 2 -2 29 26
28 28 67 83 88 123 21 40 40 72 42 72 5 0 -34 -98 -60 -150 -38 -75 -119 -165
-198 -221 -79 -56 -187 -114 -187 -101 0 18 55 81 153 177 109 107 146 164
187 288 15 46 34 80 57 103 42 42 51 39 24 -7z m417 -109 c65 -47 91 -95 108
-196 16 -103 17 -110 7 -100 -5 4 -13 43 -19 87 -14 94 -48 157 -112 206 -54
41 -40 44 16 3z m-197 -123 l40 -112 -7 70 c-3 39 -4 68 -1 65 3 -3 15 -56 27
-119 12 -63 28 -131 36 -150 15 -37 133 -231 140 -231 2 0 -7 24 -19 53 -39
87 -76 208 -87 282 -15 111 -12 116 19 24 16 -47 38 -101 50 -120 18 -31 99
-265 115 -334 7 -29 7 -29 -8 -10 -8 11 -15 16 -15 10 0 -16 25 -45 33 -38 4
4 4 0 1 -9 -4 -10 9 -32 34 -62 23 -26 41 -41 41 -34 0 8 -6 20 -12 28 -28 30
51 -32 85 -67 21 -20 37 -33 37 -27 0 5 -16 26 -36 45 -33 31 -81 115 -72 125
5 5 108 -112 108 -123 0 -5 7 -18 15 -29 14 -18 14 -17 5 10 -15 42 -9 50 57
72 78 25 252 25 336 0 53 -16 59 -20 54 -42 -6 -31 -3 -30 20 7 l20 30 1 -48
c1 -26 4 -65 8 -85 5 -33 3 -38 -13 -38 -28 0 -68 -48 -82 -100 -16 -56 -42
-106 -76 -145 l-25 -30 5 50 5 50 -22 -65 -22 -65 -8 65 c-4 36 -16 94 -26
128 l-18 64 -27 -96 c-15 -53 -27 -103 -27 -113 0 -22 -12 -9 -28 30 l-12 32
5 -43 c3 -26 2 -41 -4 -38 -24 15 -71 104 -82 154 -14 72 -28 98 -73 141 l-36
35 0 -35 c0 -25 3 -30 10 -19 8 13 10 12 10 -2 0 -10 -5 -18 -11 -18 -8 0 -10
-15 -5 -47 l6 -48 -28 60 c-16 33 -51 89 -79 125 -27 36 -66 98 -86 138 -46
92 -117 196 -205 303 -103 125 -107 134 -109 268 -1 105 -6 152 -19 206 -12
50 20 -22 57 -128z m1585 64 c-9 -39 -21 -106 -27 -148 -14 -104 -36 -150
-123 -257 -104 -131 -158 -210 -205 -304 -23 -45 -56 -99 -74 -120 -71 -81
-145 -208 -148 -252 0 -8 -3 -10 -5 -4 -2 5 7 46 21 89 27 86 31 115 15 115
-5 0 -10 12 -10 28 1 20 13 36 51 66 l51 39 -17 -34 c-14 -28 -15 -31 -2 -19
9 8 29 41 45 72 16 32 31 56 33 54 2 -2 5 5 5 17 2 37 85 309 107 352 11 22
28 65 38 95 l18 55 0 -60 c1 -67 -25 -173 -64 -261 -14 -31 -25 -59 -25 -63 0
-9 98 137 119 179 10 19 27 71 36 115 19 87 63 213 94 272 27 52 26 41 -8 -58
-43 -124 -44 -129 -16 -74 24 47 25 48 19 15 -4 -19 -13 -47 -20 -62 -23 -44
-7 -33 20 15 13 23 37 81 52 129 15 48 30 86 32 83 2 -2 -3 -35 -12 -74z m786
-50 c35 -26 38 -31 19 -31 -32 0 -76 25 -129 73 l-45 42 34 5 c30 5 37 1 56
-26 12 -17 41 -46 65 -63z m-1137 10 c-29 -47 -49 -120 -43 -159 3 -24 -2 -33
-29 -51 -18 -11 -33 -20 -33 -18 0 17 45 158 59 186 18 34 56 81 67 81 2 0 -7
-18 -21 -39z m73 1 c-18 -20 -44 -64 -57 -97 -32 -79 -45 -93 -25 -26 19 64
53 121 85 144 35 24 35 21 -3 -21z m423 -23 c55 -82 74 -126 109 -264 34 -130
34 -170 0 -54 -56 192 -75 243 -116 309 -23 38 -41 70 -39 70 2 0 23 -27 46
-61z m-1481 -61 c12 -27 19 -55 17 -61 -2 -7 -11 11 -21 39 -9 28 -33 71 -53
95 l-37 44 36 -34 c20 -18 46 -56 58 -83z m1471 -41 c11 -22 36 -86 55 -145
19 -58 43 -116 55 -128 11 -12 32 -48 45 -80 19 -45 24 -51 20 -25 -3 18 -6
42 -6 53 0 10 -3 17 -8 14 -4 -2 -7 22 -7 55 0 32 3 55 7 51 4 -4 20 -39 37
-78 31 -73 51 -167 51 -241 0 -47 -14 -58 -24 -18 -4 14 -48 69 -99 123 -102
108 -109 123 -127 262 -10 84 -27 159 -49 213 -6 16 -11 31 -11 35 0 10 37
-46 61 -91z m-1890 30 c-25 -59 -37 -100 -62 -217 -23 -113 -51 -175 -113
-254 -54 -68 -70 -120 -63 -198 6 -69 -7 -69 -53 -1 -35 53 -45 97 -36 159 3
24 4 44 3 44 -1 0 -27 -32 -57 -70 l-55 -71 -7 43 c-14 91 -9 187 12 228 11
22 25 40 30 40 13 0 14 0 -16 -64 -14 -32 -24 -59 -22 -61 2 -2 19 15 38 39
19 23 64 74 98 112 l64 69 -7 -40 c-13 -76 -25 -112 -49 -148 -14 -20 -19 -34
-12 -31 16 6 44 53 87 151 35 77 76 153 84 153 2 0 -2 -19 -10 -42 -55 -175
-76 -251 -72 -261 6 -17 70 113 106 218 28 79 120 259 129 251 1 -2 -6 -24
-17 -49z m2160 -280 c62 -93 86 -157 95 -252 l6 -60 -58 100 c-64 111 -110
214 -130 290 -19 71 -17 85 8 45 11 -19 47 -74 79 -123z m-834 86 c-3 -10 -5
-4 -5 12 0 17 2 24 5 18 2 -7 2 -21 0 -30z m899 31 c11 -3 28 -19 38 -35 10
-17 36 -43 58 -60 46 -33 38 -37 -24 -12 -60 23 -96 50 -113 84 -14 27 -14 29
2 29 10 0 27 -3 39 -6z m-1709 -26 c-3 -8 -6 -5 -6 6 -1 11 2 17 5 13 3 -3 4
-12 1 -19z m776 -57 c-10 -9 -12 -10 -5 -1 6 7 13 30 14 50 l1 35 4 -34 c3
-24 -1 -39 -14 -50z m-743 39 c0 -10 -4 -22 -10 -25 -6 -4 -10 7 -10 25 0 18
4 29 10 25 6 -3 10 -15 10 -25z m680 -30 c0 -10 -4 -22 -10 -25 -6 -4 -10 7
-10 25 0 18 4 29 10 25 6 -3 10 -15 10 -25z m-539 -12 c8 -31 1 -68 -12 -68
-12 0 -29 45 -29 76 0 35 31 28 41 -8z m495 -21 c-8 -43 -33 -68 -47 -46 -10
16 -4 43 18 78 20 32 37 13 29 -32z m-66 -9 c0 -19 -30 -78 -39 -78 -14 0 -14
35 0 85 10 37 12 38 25 20 8 -10 14 -23 14 -27z m-376 10 c15 -73 15 -89 3
-86 -19 7 -39 57 -33 84 8 30 24 31 30 2z m51 2 c4 -11 3 -34 0 -52 -9 -40
-25 -18 -25 35 0 40 15 50 25 17z m261 -6 c4 -16 1 -39 -9 -58 l-15 -31 -7 37
c-12 62 17 110 31 52z m-48 -52 c11 -46 5 -52 -54 -52 -32 0 -34 2 -34 34 0
26 8 41 32 61 36 30 41 26 56 -43z m-410 22 c-1 -9 -8 -19 -15 -21 -10 -4 -11
8 -4 57 1 2 6 -1 12 -7 6 -6 9 -19 7 -29z m276 23 c9 -7 20 -32 23 -55 l6 -42
-34 0 c-52 0 -63 11 -54 56 4 22 9 42 11 46 8 12 28 10 48 -5z m396 -24 c0
-34 -1 -35 -14 -18 -10 14 -11 25 -5 37 14 27 19 22 19 -19z m105 -7 c-9 -14
-13 -31 -9 -37 5 -8 3 -9 -6 -4 -10 6 -12 4 -7 -9 4 -9 3 -15 -2 -12 -5 4 -25
-16 -45 -43 -19 -27 -57 -62 -83 -78 l-48 -28 -239 -3 c-132 -2 -250 -1 -263
3 -30 7 -101 72 -138 125 -15 22 -31 37 -36 34 -5 -3 -6 3 -2 12 5 13 3 15 -7
9 -9 -5 -11 -4 -6 3 4 6 2 22 -4 34 -7 13 1 7 17 -12 120 -149 149 -162 373
-168 181 -5 289 7 350 38 37 19 160 144 160 163 0 6 3 8 6 5 3 -4 -2 -18 -11
-32z m-730 -36 c0 -13 -6 -25 -12 -27 -9 -3 -13 6 -13 27 0 21 4 30 13 28 6
-3 12 -15 12 -28z m584 -13 l-1 -32 -13 30 c-13 31 -11 50 6 40 5 -4 9 -21 8
-38z m-39 -11 c0 -30 -9 -56 -20 -56 -11 0 -23 57 -15 70 12 19 35 10 35 -14z
m-480 -9 c0 -23 -17 -47 -32 -47 -10 0 -11 54 -1 63 14 15 33 6 33 -16z m418
-19 c-4 -41 -28 -50 -28 -10 0 16 3 32 7 35 15 16 24 5 21 -25z m749 -40 c-9
-91 -33 -152 -82 -206 l-43 -47 39 80 c42 87 79 188 79 217 0 10 3 18 6 18 4
0 4 -28 1 -62z m-1133 36 c7 -19 -2 -37 -15 -29 -12 8 -12 45 0 45 5 0 12 -7
15 -16z m51 -4 c7 -21 0 -40 -15 -40 -12 0 -23 37 -15 50 10 16 23 12 30 -10z
m275 -4 c0 -14 -5 -28 -10 -31 -13 -8 -24 20 -16 40 9 24 26 17 26 -9z m265
-16 c-9 -18 -28 -62 -42 -99 -13 -36 -36 -83 -51 -104 -22 -33 -27 -36 -33
-20 -9 25 7 62 40 98 16 17 34 41 41 55 10 21 6 19 -26 -12 -42 -39 -80 -58
-120 -58 -38 0 -28 17 15 24 47 7 114 56 156 112 35 48 43 49 20 4z m-731 -73
c22 -21 60 -44 85 -52 l46 -14 -47 0 c-41 -1 -53 4 -86 33 -21 19 -51 59 -66
88 l-28 53 28 -35 c15 -19 46 -52 68 -73z m256 86 c0 -10 -4 -24 -9 -32 -7
-11 -11 -10 -20 7 -16 30 -14 42 9 42 12 0 20 -7 20 -17z m45 -13 c0 -13 -6
-25 -12 -27 -9 -3 -13 6 -13 27 0 21 4 30 13 28 6 -3 12 -15 12 -28z m65 -6
c-11 -28 -12 -28 -26 -10 -19 27 -18 34 9 38 29 5 29 5 17 -28z m48 14 c-5
-32 -28 -35 -28 -4 0 17 5 26 16 26 10 0 14 -7 12 -22z m929 -50 c-3 -8 -6 -5
-6 6 -1 11 2 17 5 13 3 -3 4 -12 1 -19z m-2006 -75 c28 -86 68 -167 108 -217
36 -45 38 -50 13 -37 -28 15 -98 110 -122 165 -20 45 -39 156 -27 156 3 0 15
-30 28 -67z m1518 -226 c-7 -12 -39 -51 -73 -87 -34 -36 -78 -85 -99 -110 -32
-39 -36 -41 -25 -15 25 61 90 154 138 199 51 48 80 54 59 13z"/>
<path d="M1700 3711 c0 -6 4 -13 10 -16 6 -3 7 1 4 9 -7 18 -14 21 -14 7z"/>
<path d="M3322 3730 c0 -14 2 -19 5 -12 2 6 2 18 0 25 -3 6 -5 1 -5 -13z"/>
<path d="M3202 3930 c0 -14 2 -19 5 -12 2 6 2 18 0 25 -3 6 -5 1 -5 -13z"/>
<path d="M1781 1970 c0 -8 4 -24 9 -35 5 -13 9 -14 9 -5 0 8 -4 24 -9 35 -5
13 -9 14 -9 5z"/>
<path d="M2510 1293 c-95 -15 -140 -56 -140 -125 l1 -33 22 45 c32 66 70 82
178 78 104 -5 143 -24 175 -88 l23 -45 -6 40 c-8 56 -28 84 -76 105 -44 19
-134 31 -177 23z"/>
<path d="M2711 1134 c0 -11 3 -14 6 -6 3 7 2 16 -1 19 -3 4 -6 -2 -5 -13z"/>
<path d="M2722 1090 c0 -14 2 -19 5 -12 2 6 2 18 0 25 -3 6 -5 1 -5 -13z"/>
<path d="M2697 1022 l-18 -37 20 25 c12 14 21 31 21 38 0 19 -4 15 -23 -26z"/>
<path d="M3271 1864 c0 -11 3 -14 6 -6 3 7 2 16 -1 19 -3 4 -6 -2 -5 -13z"/>
<path d="M3640 1516 c0 -2 8 -10 18 -17 15 -13 16 -12 3 4 -13 16 -21 21 -21
13z"/>
<path d="M1649 4483 c-13 -16 -12 -17 4 -4 9 7 17 15 17 17 0 8 -8 3 -21 -13z"/>
<path d="M1615 4429 c-9 -17 -15 -34 -13 -39 2 -5 11 9 20 30 20 47 15 53 -7
9z"/>
<path d="M2700 4215 c0 -7 81 -47 86 -43 2 3 -17 14 -41 26 -25 12 -45 20 -45
17z"/>
<path d="M1861 3990 c14 -31 19 -36 19 -24 0 6 -7 19 -16 30 -14 18 -14 18 -3
-6z"/>
<path d="M2751 3968 c37 -37 59 -93 59 -150 0 -60 -25 -122 -90 -222 -65 -101
-94 -175 -103 -266 -3 -30 -4 -46 -1 -35 27 100 64 182 123 273 79 125 91 155
91 234 0 86 -36 159 -94 190 -10 6 -3 -5 15 -24z"/>
<path d="M2954 3980 c2 -8 17 -44 32 -80 17 -42 29 -90 32 -136 5 -86 -7 -114
-84 -190 -52 -52 -54 -56 -54 -107 0 -40 -6 -61 -25 -90 -14 -20 -23 -37 -21
-37 3 0 17 17 31 37 18 28 25 51 25 87 0 47 2 50 69 113 38 35 75 77 81 94 21
51 6 128 -44 231 -26 51 -44 86 -42 78z"/>
<path d="M3028 3480 c-7 -129 -24 -159 -191 -329 -146 -148 -192 -206 -221
-275 -25 -59 -18 -57 14 5 38 73 113 154 226 245 105 83 137 121 165 193 22
60 34 174 21 216 -7 25 -10 15 -14 -55z"/>
<path d="M1861 3384 c0 -11 3 -14 6 -6 3 7 2 16 -1 19 -3 4 -6 -2 -5 -13z"/>
<path d="M1921 3387 c-2 -47 63 -143 114 -168 11 -6 8 0 -8 11 -36 29 -83 98
-95 141 -6 19 -11 26 -11 16z"/>
<path d="M1871 3313 c-1 -17 3 -34 8 -37 5 -3 7 -14 4 -25 -4 -17 31 -101 42
-101 3 0 -4 18 -15 40 -25 48 -27 76 -2 37 9 -16 39 -40 67 -55 42 -23 56 -38
89 -100 31 -56 62 -93 139 -164 54 -50 114 -114 133 -142 39 -58 46 -55 9 4
-13 21 -75 90 -137 152 -67 67 -125 135 -143 168 -21 38 -46 65 -83 90 -59 40
-79 65 -98 124 -12 40 -13 41 -13 9z"/>
<path d="M2799 3323 c-13 -16 -12 -17 4 -4 16 13 21 21 13 21 -2 0 -10 -8 -17
-17z"/>
<path d="M3097 3223 c-21 -31 -29 -49 -19 -40 17 16 67 97 60 97 -2 0 -21 -26
-41 -57z"/>
<path d="M2711 3252 c-1 -7 -14 -32 -30 -55 -34 -50 -66 -113 -75 -147 -4 -15
2 -9 15 15 11 22 39 71 61 108 22 37 37 73 34 80 -3 9 -5 8 -5 -1z"/>
<path d="M3171 3221 c-7 -11 -28 -32 -49 -46 -44 -30 -33 -34 14 -4 34 20 61
56 51 66 -3 2 -10 -5 -16 -16z"/>
<path d="M2437 3114 c32 -45 64 -90 71 -100 7 -10 1 4 -13 31 -14 28 -46 73
-71 100 -43 47 -42 46 13 -31z"/>
<path d="M3062 3138 c-5 -7 -22 -38 -37 -68 -19 -37 -62 -89 -135 -160 -93
-92 -170 -192 -170 -225 0 -5 16 18 37 52 21 37 81 106 146 170 86 85 116 122
142 175 33 67 37 80 17 56z"/>
<path d="M4035 2755 c-17 -14 -17 -16 -2 -11 24 7 23 -35 -1 -57 -26 -24 -51
-21 -62 6 -5 13 -9 16 -9 7 -2 -41 65 -54 99 -20 23 23 26 49 7 73 -11 16 -14
16 -32 2z"/>
<path d="M3330 2668 c-11 -24 -19 -52 -19 -63 0 -11 6 -2 13 20 7 22 18 50 25
63 6 12 9 22 6 22 -3 0 -15 -19 -25 -42z"/>
<path d="M1692 2545 c0 -16 2 -22 5 -12 2 9 2 23 0 30 -3 6 -5 -1 -5 -18z"/>
<path d="M3411 2510 c-3 -131 -84 -208 -221 -211 l-45 -1 40 -9 c63 -15 138 5
184 49 47 45 68 122 53 187 l-10 40 -1 -55z"/>
<path d="M1681 2467 c-2 -109 81 -178 211 -176 l63 1 -52 8 c-72 11 -149 40
-173 66 -12 11 -27 50 -35 85 l-13 64 -1 -48z"/>
<path d="M3271 2464 c-30 -31 -94 -65 -141 -75 l-35 -7 35 -1 c41 -1 134 50
158 87 19 29 13 28 -17 -4z"/>
<path d="M1834 2452 c35 -37 105 -72 143 -71 21 1 12 6 -31 19 -32 10 -77 33
-100 51 l-41 32 29 -31z"/>
<path d="M1243 2403 c9 -2 25 -2 35 0 9 3 1 5 -18 5 -19 0 -27 -2 -17 -5z"/>
<path d="M1740 2395 c0 -5 5 -17 10 -25 5 -8 10 -10 10 -5 0 6 -5 17 -10 25
-5 8 -10 11 -10 5z"/>
<path d="M2737 2292 c-17 -17 -35 -55 -46 -98 -11 -38 -23 -78 -26 -89 -3 -11
1 -6 11 10 9 17 22 37 29 45 7 8 15 33 18 55 4 21 16 52 28 68 28 38 19 44
-14 9z"/>
<path d="M2256 2266 c-29 -30 -55 -47 -80 -51 -48 -10 -56 -1 -17 20 17 8 31
17 31 18 0 2 -16 1 -35 -1 -19 -2 -48 1 -65 7 l-31 10 35 -32 c23 -22 37 -46
41 -72 4 -22 15 -53 24 -70 l16 -30 3 55 c5 79 17 81 17 2 0 -43 7 -79 18
-102 9 -19 15 -26 12 -15 -16 54 -16 102 -1 135 16 35 16 35 12 5 -4 -25 -2
-27 8 -13 10 14 14 9 23 -35 15 -67 60 -170 73 -162 5 3 14 -5 21 -17 7 -13
40 -54 74 -93 34 -38 74 -89 89 -113 15 -23 31 -40 37 -36 6 3 8 8 5 11 -7 8
22 61 58 106 16 21 31 45 32 54 2 9 15 28 30 42 16 14 21 17 11 5 -36 -43 -15
-35 41 17 72 67 93 107 100 186 5 67 12 70 44 19 l20 -31 -5 45 c-5 41 -4 43
9 25 8 -11 13 -29 10 -40 -3 -11 -8 -40 -11 -65 l-5 -45 13 40 c23 69 55 122
89 149 33 26 33 26 5 16 -21 -7 -35 -6 -58 5 -39 21 -37 10 4 -15 55 -34 3
-23 -73 15 -83 42 -104 43 -127 9 -16 -25 -16 -27 0 -36 56 -31 77 -84 54
-134 -18 -37 -37 -45 -37 -15 0 28 -15 34 -47 17 -43 -22 -79 -65 -107 -128
-22 -51 -28 -58 -54 -58 -34 0 -52 19 -79 80 -18 42 -91 120 -112 120 -5 0
-11 -12 -13 -27 l-3 -28 -27 29 c-37 39 -36 76 3 121 24 27 30 41 25 61 -5 17
-3 23 4 19 15 -9 12 18 -6 43 -23 33 -50 27 -98 -22z"/>
<path d="M1960 2193 c69 -23 100 -31 100 -27 0 9 -69 34 -92 33 -14 0 -17 -3
-8 -6z"/>
<path d="M3691 1964 c-1 -18 54 -88 85 -108 23 -16 20 -10 -16 30 -25 28 -50
59 -57 70 -6 10 -12 14 -12 8z"/>
<path d="M2822 1930 c0 -14 2 -19 5 -12 2 6 2 18 0 25 -3 6 -5 1 -5 -13z"/>
<path d="M2364 1872 c8 -13 66 -56 66 -49 0 3 -17 17 -37 33 -20 15 -33 23
-29 16z"/>
<path d="M3873 1853 c9 -2 23 -2 30 0 6 3 -1 5 -18 5 -16 0 -22 -2 -12 -5z"/>
<path d="M2694 1818 l-29 -33 33 29 c30 28 37 36 29 36 -2 0 -16 -15 -33 -32z"/>
<path d="M2820 1796 l-12 -44 -62 -11 c-35 -6 -75 -11 -90 -11 -26 0 -92 -28
-84 -35 2 -2 24 2 48 10 46 14 171 37 203 36 14 0 17 9 17 50 0 27 -2 49 -4
49 -2 0 -9 -20 -16 -44z"/>
<path d="M2373 1729 c37 -5 84 -16 105 -24 33 -13 35 -13 17 0 -28 22 -83 35
-140 34 -49 -2 -48 -2 18 -10z"/>
<path d="M3381 1404 c0 -11 3 -14 6 -6 3 7 2 16 -1 19 -3 4 -6 -2 -5 -13z"/>
<path d="M3471 974 c-85 -88 -121 -147 -120 -199 1 -29 1 -29 8 -5 15 48 43
92 94 148 64 70 111 131 105 137 -2 2 -41 -34 -87 -81z"/>
</g>
</svg>